<mxfile host="app.diagrams.net" modified="2023-04-20T10:58:20.025Z" agent="5.0 (Windows NT 10.0; Win64; x64) AppleWebKit/537.36 (KHTML, like Gecko) Chrome/111.0.0.0 Safari/537.36" etag="n_iuZXJHdTwRi84BHwWc" version="20.6.2" type="github">
  <diagram id="gd0Vs7x8epCB3-VAoTR1" name="Page-1">
    <mxGraphModel dx="1673" dy="896" grid="0" gridSize="10" guides="1" tooltips="1" connect="1" arrows="1" fold="1" page="1" pageScale="1" pageWidth="1600" pageHeight="1200" math="0" shadow="0">
      <root>
        <mxCell id="0" />
        <mxCell id="1" parent="0" />
        <mxCell id="AHjrq2r-RXmyC5x76Tg_-21" value="" style="rounded=0;whiteSpace=wrap;html=1;dashed=1;strokeWidth=1;fontFamily=GOST type A Regular;fontSource=https%3A%2F%2Fwebfonts.pro%2Flight-fonts%2F123-gost_type_a.html;" vertex="1" parent="1">
          <mxGeometry x="31" y="221" width="783" height="479" as="geometry" />
        </mxCell>
        <mxCell id="AHjrq2r-RXmyC5x76Tg_-8" value="" style="rounded=0;whiteSpace=wrap;html=1;dashed=1;strokeWidth=1;fontFamily=GOST type A Regular;fontSource=https%3A%2F%2Fwebfonts.pro%2Flight-fonts%2F123-gost_type_a.html;" vertex="1" parent="1">
          <mxGeometry x="904" y="220" width="690" height="587" as="geometry" />
        </mxCell>
        <mxCell id="AHjrq2r-RXmyC5x76Tg_-2" value="" style="rounded=0;whiteSpace=wrap;html=1;dashed=1;strokeWidth=1;fontFamily=GOST type A Regular;fontSource=https%3A%2F%2Fwebfonts.pro%2Flight-fonts%2F123-gost_type_a.html;" vertex="1" parent="1">
          <mxGeometry x="31" y="221" width="783" height="479" as="geometry" />
        </mxCell>
        <mxCell id="Rleqs9U9Go9pdxazjdjM-3" value="&lt;span style=&quot;font-size: 18px;&quot;&gt;&lt;b&gt;База данных&lt;/b&gt;&lt;br&gt;MongoDB&lt;br&gt;&lt;/span&gt;" style="ellipse;whiteSpace=wrap;html=1;fontSize=18;fontFamily=GOST type A Regular;fontSource=https%3A%2F%2Fwebfonts.pro%2Flight-fonts%2F123-gost_type_a.html;fontStyle=2" parent="1" vertex="1">
          <mxGeometry x="59" y="550" width="130" height="90" as="geometry" />
        </mxCell>
        <mxCell id="JAu2rXF-X8iYknNwJSAS-2" style="edgeStyle=orthogonalEdgeStyle;rounded=0;orthogonalLoop=1;jettySize=auto;html=1;exitX=1;exitY=0.5;exitDx=0;exitDy=0;entryX=0;entryY=0.5;entryDx=0;entryDy=0;endArrow=classic;endFill=1;startArrow=classic;startFill=1;fontFamily=GOST type A Regular;fontSource=https%3A%2F%2Fwebfonts.pro%2Flight-fonts%2F123-gost_type_a.html;fontStyle=2" parent="1" source="riICpPSAZor0eneKkd08-1" target="riICpPSAZor0eneKkd08-5" edge="1">
          <mxGeometry relative="1" as="geometry" />
        </mxCell>
        <mxCell id="riICpPSAZor0eneKkd08-1" value="&lt;font&gt;&lt;span style=&quot;font-size: 18px;&quot;&gt;&lt;b&gt;Модели&lt;/b&gt;&lt;/span&gt;&lt;/font&gt;&lt;br style=&quot;font-size: 18px;&quot;&gt;&lt;font&gt;&lt;span style=&quot;font-size: 18px;&quot;&gt;User,&lt;br&gt;Service,&lt;br&gt;Task,&lt;br&gt;Comment,&lt;br&gt;Chat,&lt;br&gt;ChatMessage&lt;br&gt;&lt;/span&gt;&lt;/font&gt;" style="rounded=0;whiteSpace=wrap;html=1;fontFamily=GOST type A Regular;fontSource=https%3A%2F%2Fwebfonts.pro%2Flight-fonts%2F123-gost_type_a.html;fontStyle=2" parent="1" vertex="1">
          <mxGeometry x="294" y="512" width="120" height="166" as="geometry" />
        </mxCell>
        <mxCell id="riICpPSAZor0eneKkd08-3" style="edgeStyle=orthogonalEdgeStyle;rounded=0;orthogonalLoop=1;jettySize=auto;html=1;exitX=0;exitY=0.5;exitDx=0;exitDy=0;entryX=1;entryY=0.5;entryDx=0;entryDy=0;fontFamily=GOST type A Regular;fontSource=https%3A%2F%2Fwebfonts.pro%2Flight-fonts%2F123-gost_type_a.html;startArrow=classic;startFill=1;endArrow=classic;endFill=1;fontStyle=2" parent="1" source="riICpPSAZor0eneKkd08-1" target="Rleqs9U9Go9pdxazjdjM-3" edge="1">
          <mxGeometry relative="1" as="geometry">
            <mxPoint x="292" y="589" as="sourcePoint" />
            <mxPoint x="176" y="589" as="targetPoint" />
          </mxGeometry>
        </mxCell>
        <mxCell id="JAu2rXF-X8iYknNwJSAS-6" style="edgeStyle=orthogonalEdgeStyle;rounded=0;orthogonalLoop=1;jettySize=auto;html=1;exitX=0.5;exitY=1;exitDx=0;exitDy=0;fontFamily=GOST type A Regular;fontSource=https%3A%2F%2Fwebfonts.pro%2Flight-fonts%2F123-gost_type_a.html;fontSize=14;startArrow=none;startFill=0;endArrow=classic;endFill=1;fontStyle=2;entryX=0.497;entryY=0.034;entryDx=0;entryDy=0;entryPerimeter=0;" parent="1" source="riICpPSAZor0eneKkd08-4" target="JAu2rXF-X8iYknNwJSAS-5" edge="1">
          <mxGeometry relative="1" as="geometry" />
        </mxCell>
        <mxCell id="riICpPSAZor0eneKkd08-4" value="&lt;font&gt;&lt;span style=&quot;font-size: 18px;&quot;&gt;&lt;b&gt;Маршруты&lt;/b&gt;&lt;/span&gt;&lt;/font&gt;&lt;br style=&quot;font-size: 18px;&quot;&gt;&lt;font&gt;&lt;span style=&quot;font-size: 18px;&quot;&gt;authRoutes,&lt;br&gt;serviceRoutes,&lt;br&gt;taskRoutes,&lt;br&gt;commentRoutes,&lt;br&gt;chatRoutes,&lt;br&gt;chatMessageRoutes&lt;br&gt;&lt;/span&gt;&lt;/font&gt;" style="rounded=0;whiteSpace=wrap;html=1;fontFamily=GOST type A Regular;fontSource=https%3A%2F%2Fwebfonts.pro%2Flight-fonts%2F123-gost_type_a.html;fontStyle=2" parent="1" vertex="1">
          <mxGeometry x="575" y="262" width="177" height="166" as="geometry" />
        </mxCell>
        <mxCell id="JAu2rXF-X8iYknNwJSAS-7" style="edgeStyle=orthogonalEdgeStyle;rounded=0;orthogonalLoop=1;jettySize=auto;html=1;exitX=0.5;exitY=0;exitDx=0;exitDy=0;fontFamily=GOST type A Regular;fontSource=https%3A%2F%2Fwebfonts.pro%2Flight-fonts%2F123-gost_type_a.html;fontSize=14;startArrow=classic;startFill=1;endArrow=none;endFill=0;fontStyle=2" parent="1" source="riICpPSAZor0eneKkd08-5" target="JAu2rXF-X8iYknNwJSAS-5" edge="1">
          <mxGeometry relative="1" as="geometry" />
        </mxCell>
        <mxCell id="JAu2rXF-X8iYknNwJSAS-10" style="edgeStyle=orthogonalEdgeStyle;rounded=0;orthogonalLoop=1;jettySize=auto;html=1;exitX=1;exitY=0.5;exitDx=0;exitDy=0;fontFamily=GOST type A Regular;fontSource=https%3A%2F%2Fwebfonts.pro%2Flight-fonts%2F123-gost_type_a.html;fontSize=14;startArrow=none;startFill=0;endArrow=classic;endFill=1;fontStyle=2" parent="1" source="riICpPSAZor0eneKkd08-5" edge="1" target="JAu2rXF-X8iYknNwJSAS-1">
          <mxGeometry relative="1" as="geometry">
            <mxPoint x="975" y="599" as="targetPoint" />
            <Array as="points">
              <mxPoint x="914" y="599" />
              <mxPoint x="914" y="599" />
            </Array>
          </mxGeometry>
        </mxCell>
        <mxCell id="riICpPSAZor0eneKkd08-5" value="&lt;font data-font-src=&quot;https://webfonts.pro/light-fonts/123-gost_type_a.html&quot;&gt;&lt;font&gt;&lt;span style=&quot;font-size: 18px;&quot;&gt;&lt;b&gt;Контроллеры&lt;/b&gt;&lt;/span&gt;&lt;/font&gt;&lt;br style=&quot;font-size: 18px;&quot;&gt;&lt;/font&gt;&lt;font&gt;&lt;font data-font-src=&quot;https://webfonts.pro/light-fonts/123-gost_type_a.html&quot;&gt;&lt;span style=&quot;font-size: 18px;&quot;&gt;authController,&lt;br&gt;serviceController,&lt;br&gt;taskController,&lt;br&gt;comment&lt;/span&gt;&lt;span style=&quot;font-size: 18px;&quot;&gt;Controller,&lt;/span&gt;&lt;span style=&quot;font-size: 18px;&quot;&gt;&lt;br&gt;chat&lt;/span&gt;&lt;span style=&quot;font-size: 18px;&quot;&gt;Controller,&lt;/span&gt;&lt;span style=&quot;font-size: 18px;&quot;&gt;&lt;br&gt;chatMessage&lt;/span&gt;&lt;span style=&quot;font-size: 18px;&quot;&gt;Controller&lt;/span&gt;&lt;/font&gt;&lt;span style=&quot;font-size: 18px;&quot;&gt;&lt;br&gt;&lt;/span&gt;&lt;/font&gt;" style="rounded=0;whiteSpace=wrap;html=1;fontFamily=GOST type A Regular;fontSource=https%3A%2F%2Fwebfonts.pro%2Flight-fonts%2F123-gost_type_a.html;fontStyle=2" parent="1" vertex="1">
          <mxGeometry x="575" y="512" width="177" height="166" as="geometry" />
        </mxCell>
        <mxCell id="JAu2rXF-X8iYknNwJSAS-1" value="" style="rounded=0;whiteSpace=wrap;html=1;fontFamily=GOST type A Regular;fontSource=https%3A%2F%2Fwebfonts.pro%2Flight-fonts%2F123-gost_type_a.html;fontStyle=2" parent="1" vertex="1">
          <mxGeometry x="954" y="278" width="610" height="393" as="geometry" />
        </mxCell>
        <mxCell id="JAu2rXF-X8iYknNwJSAS-3" value="Чтение и запись данных" style="text;html=1;align=center;verticalAlign=middle;resizable=0;points=[];autosize=1;strokeColor=none;fillColor=none;fontFamily=GOST type A Regular;fontSource=https%3A%2F%2Fwebfonts.pro%2Flight-fonts%2F123-gost_type_a.html;fontStyle=2;fontSize=14;" parent="1" vertex="1">
          <mxGeometry x="428" y="562" width="137" height="29" as="geometry" />
        </mxCell>
        <mxCell id="JAu2rXF-X8iYknNwJSAS-5" value="Перенаправляет запрос нужному контроллеру" style="text;html=1;align=center;verticalAlign=middle;resizable=0;points=[];autosize=1;strokeColor=none;fillColor=none;fontSize=14;fontFamily=GOST type A Regular;fontStyle=2;fontSource=https%3A%2F%2Fwebfonts.pro%2Flight-fonts%2F123-gost_type_a.html;" parent="1" vertex="1">
          <mxGeometry x="541.5" y="453" width="244" height="29" as="geometry" />
        </mxCell>
        <mxCell id="JAu2rXF-X8iYknNwJSAS-9" value="HTTP-запрос" style="text;html=1;align=center;verticalAlign=middle;resizable=0;points=[];autosize=1;strokeColor=none;fillColor=none;fontSize=14;fontFamily=GOST type A Regular;fontSource=https%3A%2F%2Fwebfonts.pro%2Flight-fonts%2F123-gost_type_a.html;fontStyle=2" parent="1" vertex="1">
          <mxGeometry x="818" y="312" width="81" height="29" as="geometry" />
        </mxCell>
        <mxCell id="JAu2rXF-X8iYknNwJSAS-11" value="Ответ клиенту" style="text;html=1;align=center;verticalAlign=middle;resizable=0;points=[];autosize=1;strokeColor=none;fillColor=none;fontSize=14;fontFamily=GOST type A Regular;fontSource=https%3A%2F%2Fwebfonts.pro%2Flight-fonts%2F123-gost_type_a.html;fontStyle=2" parent="1" vertex="1">
          <mxGeometry x="811" y="562.88" width="95" height="29" as="geometry" />
        </mxCell>
        <mxCell id="AHjrq2r-RXmyC5x76Tg_-5" value="Сервер" style="text;html=1;strokeColor=default;fillColor=none;align=center;verticalAlign=middle;whiteSpace=wrap;rounded=0;strokeWidth=1;fontFamily=GOST type A Regular;fontSource=https%3A%2F%2Fwebfonts.pro%2Flight-fonts%2F123-gost_type_a.html;" vertex="1" parent="1">
          <mxGeometry x="31" y="221" width="85" height="44" as="geometry" />
        </mxCell>
        <mxCell id="AHjrq2r-RXmyC5x76Tg_-9" value="Клиент" style="text;html=1;strokeColor=default;fillColor=none;align=center;verticalAlign=middle;whiteSpace=wrap;rounded=0;strokeWidth=1;fontFamily=GOST type A Regular;fontSource=https%3A%2F%2Fwebfonts.pro%2Flight-fonts%2F123-gost_type_a.html;" vertex="1" parent="1">
          <mxGeometry x="904" y="220" width="85" height="44" as="geometry" />
        </mxCell>
        <mxCell id="AHjrq2r-RXmyC5x76Tg_-10" style="edgeStyle=orthogonalEdgeStyle;rounded=0;orthogonalLoop=1;jettySize=auto;html=1;fontFamily=GOST type A Regular;fontSource=https%3A%2F%2Fwebfonts.pro%2Flight-fonts%2F123-gost_type_a.html;fontSize=14;startArrow=classic;startFill=1;endArrow=none;endFill=0;fontStyle=2" edge="1" parent="1" source="riICpPSAZor0eneKkd08-4" target="JAu2rXF-X8iYknNwJSAS-1">
          <mxGeometry relative="1" as="geometry">
            <mxPoint x="975" y="348.29" as="targetPoint" />
            <mxPoint x="729" y="348.29" as="sourcePoint" />
            <Array as="points">
              <mxPoint x="901" y="345" />
              <mxPoint x="901" y="345" />
            </Array>
          </mxGeometry>
        </mxCell>
        <mxCell id="AHjrq2r-RXmyC5x76Tg_-12" value="&lt;font&gt;&lt;span style=&quot;font-size: 18px;&quot;&gt;&lt;b&gt;&lt;i&gt;Страницы&lt;/i&gt;&lt;/b&gt;&lt;/span&gt;&lt;/font&gt;&lt;br style=&quot;font-style: italic; font-size: 18px;&quot;&gt;&lt;font style=&quot;font-style: italic;&quot;&gt;&lt;span style=&quot;font-size: 18px;&quot;&gt;ServicesPage.jsx,&lt;br&gt;ServicePage.jsx,&lt;br&gt;&lt;/span&gt;&lt;span style=&quot;font-size: 18px;&quot;&gt;TasksPage.jsx,&lt;br&gt;TaskPage.jsx,&lt;br&gt;LoginPage.jsx,&lt;br&gt;&lt;/span&gt;&lt;span style=&quot;font-size: 18px;&quot;&gt;RegisterPage.jsx,&lt;/span&gt;&lt;span style=&quot;font-size: 18px;&quot;&gt;&lt;br&gt;&lt;/span&gt;&lt;span style=&quot;font-size: 18px;&quot;&gt;MyServicesPage.jsx,&lt;br&gt;&lt;/span&gt;&lt;span style=&quot;font-size: 18px;&quot;&gt;MyTasksPage.jsx,&lt;br&gt;AddServicePage.jsx,&lt;br&gt;&lt;/span&gt;&lt;span style=&quot;font-size: 18px;&quot;&gt;AddTaskPage.jsx,&lt;br&gt;ChatsPage.jsx&lt;/span&gt;&lt;/font&gt;" style="rounded=0;whiteSpace=wrap;html=1;strokeColor=default;strokeWidth=1;fontFamily=GOST type A Regular;fontSource=https%3A%2F%2Fwebfonts.pro%2Flight-fonts%2F123-gost_type_a.html;" vertex="1" parent="1">
          <mxGeometry x="1189" y="335" width="120" height="297.5" as="geometry" />
        </mxCell>
        <mxCell id="AHjrq2r-RXmyC5x76Tg_-13" value="&lt;b style=&quot;font-size: 18px; font-style: italic;&quot;&gt;Представления&lt;/b&gt;" style="text;html=1;strokeColor=none;fillColor=none;align=center;verticalAlign=middle;whiteSpace=wrap;rounded=0;strokeWidth=1;fontFamily=GOST type A Regular;fontSource=https%3A%2F%2Fwebfonts.pro%2Flight-fonts%2F123-gost_type_a.html;" vertex="1" parent="1">
          <mxGeometry x="1218" y="278" width="60" height="30" as="geometry" />
        </mxCell>
        <mxCell id="AHjrq2r-RXmyC5x76Tg_-14" value="&lt;font&gt;&lt;span style=&quot;font-size: 18px;&quot;&gt;&lt;b&gt;&lt;i&gt;Компоненты&lt;/i&gt;&lt;/b&gt;&lt;/span&gt;&lt;/font&gt;&lt;br style=&quot;font-style: italic; font-size: 18px;&quot;&gt;&lt;font style=&quot;font-style: italic;&quot;&gt;&lt;span style=&quot;font-size: 18px;&quot;&gt;ChatBox.jsx,&lt;br&gt;ServiceItem.jsx,&lt;br&gt;&lt;/span&gt;&lt;span style=&quot;font-size: 18px;&quot;&gt;TaskItem.jsx,&lt;br&gt;Navbar.jsx,&lt;br&gt;Layout.jsx,&lt;br&gt;&lt;/span&gt;&lt;span style=&quot;font-size: 18px;&quot;&gt;MessageItem.jsx,&lt;/span&gt;&lt;span style=&quot;font-size: 18px;&quot;&gt;&lt;br&gt;&lt;/span&gt;&lt;span style=&quot;font-size: 18px;&quot;&gt;CommentItem.jsx&lt;/span&gt;&lt;/font&gt;" style="rounded=0;whiteSpace=wrap;html=1;strokeColor=default;strokeWidth=1;fontFamily=GOST type A Regular;fontSource=https%3A%2F%2Fwebfonts.pro%2Flight-fonts%2F123-gost_type_a.html;" vertex="1" parent="1">
          <mxGeometry x="989" y="377.25" width="120" height="184.75" as="geometry" />
        </mxCell>
        <mxCell id="AHjrq2r-RXmyC5x76Tg_-16" value="&lt;font&gt;&lt;span style=&quot;font-size: 18px;&quot;&gt;&lt;b&gt;&lt;i&gt;Маршрутиы&lt;/i&gt;&lt;/b&gt;&lt;/span&gt;&lt;/font&gt;&lt;br style=&quot;font-style: italic; font-size: 18px;&quot;&gt;&lt;font style=&quot;font-style: italic;&quot;&gt;&lt;span style=&quot;font-size: 18px;&quot;&gt;ServicesPage&lt;/span&gt;&lt;span style=&quot;font-size: 18px;&quot;&gt;Route&lt;/span&gt;&lt;span style=&quot;font-size: 18px;&quot;&gt;,&lt;br&gt;ServicePage&lt;/span&gt;&lt;span style=&quot;font-size: 18px;&quot;&gt;Route&lt;/span&gt;&lt;span style=&quot;font-size: 18px;&quot;&gt;,&lt;br&gt;&lt;/span&gt;&lt;span style=&quot;font-size: 18px;&quot;&gt;TasksPage&lt;/span&gt;&lt;span style=&quot;font-size: 18px;&quot;&gt;Route&lt;/span&gt;&lt;span style=&quot;font-size: 18px;&quot;&gt;,&lt;br&gt;TaskPage&lt;/span&gt;&lt;span style=&quot;font-size: 18px;&quot;&gt;Route&lt;/span&gt;&lt;span style=&quot;font-size: 18px;&quot;&gt;,&lt;br&gt;LoginPage&lt;/span&gt;&lt;span style=&quot;font-size: 18px;&quot;&gt;Route&lt;/span&gt;&lt;span style=&quot;font-size: 18px;&quot;&gt;,&lt;br&gt;&lt;/span&gt;&lt;span style=&quot;font-size: 18px;&quot;&gt;RegisterPage&lt;/span&gt;&lt;span style=&quot;font-size: 18px;&quot;&gt;Route&lt;/span&gt;&lt;span style=&quot;font-size: 18px;&quot;&gt;,&lt;/span&gt;&lt;span style=&quot;font-size: 18px;&quot;&gt;&lt;br&gt;&lt;/span&gt;&lt;span style=&quot;font-size: 18px;&quot;&gt;MyServicesPage&lt;/span&gt;&lt;span style=&quot;font-size: 18px;&quot;&gt;Route,&lt;/span&gt;&lt;span style=&quot;font-size: 18px;&quot;&gt;&lt;br&gt;&lt;/span&gt;&lt;span style=&quot;font-size: 18px;&quot;&gt;MyTasksPage.&lt;/span&gt;&lt;span style=&quot;font-size: 18px;&quot;&gt;Route&lt;/span&gt;&lt;span style=&quot;font-size: 18px;&quot;&gt;,&lt;br&gt;AddServicePage&lt;/span&gt;&lt;span style=&quot;font-size: 18px;&quot;&gt;Route&lt;/span&gt;&lt;span style=&quot;font-size: 18px;&quot;&gt;,&lt;br&gt;&lt;/span&gt;&lt;span style=&quot;font-size: 18px;&quot;&gt;AddTaskPage&lt;/span&gt;&lt;span style=&quot;font-size: 18px;&quot;&gt;Route,&lt;/span&gt;&lt;span style=&quot;font-size: 18px;&quot;&gt;&lt;br&gt;ChatsPageRoute&lt;/span&gt;&lt;span style=&quot;font-size: 18px;&quot;&gt;&lt;br&gt;&lt;/span&gt;&lt;br&gt;&lt;/font&gt;" style="rounded=0;whiteSpace=wrap;html=1;strokeColor=default;strokeWidth=1;fontFamily=GOST type A Regular;fontSource=https%3A%2F%2Fwebfonts.pro%2Flight-fonts%2F123-gost_type_a.html;" vertex="1" parent="1">
          <mxGeometry x="1389" y="329.5" width="143" height="303" as="geometry" />
        </mxCell>
        <mxCell id="AHjrq2r-RXmyC5x76Tg_-17" style="edgeStyle=orthogonalEdgeStyle;rounded=0;orthogonalLoop=1;jettySize=auto;html=1;fontFamily=GOST type A Regular;fontSource=https%3A%2F%2Fwebfonts.pro%2Flight-fonts%2F123-gost_type_a.html;fontSize=14;startArrow=classic;startFill=1;endArrow=none;endFill=0;fontStyle=2;entryX=-0.009;entryY=0.308;entryDx=0;entryDy=0;entryPerimeter=0;" edge="1" parent="1" source="AHjrq2r-RXmyC5x76Tg_-14" target="AHjrq2r-RXmyC5x76Tg_-12">
          <mxGeometry relative="1" as="geometry">
            <mxPoint x="1338" y="432.004117647059" as="targetPoint" />
            <mxPoint x="1092" y="431.9999999999997" as="sourcePoint" />
            <Array as="points">
              <mxPoint x="1133" y="427" />
              <mxPoint x="1133" y="427" />
            </Array>
          </mxGeometry>
        </mxCell>
        <mxCell id="AHjrq2r-RXmyC5x76Tg_-18" style="edgeStyle=orthogonalEdgeStyle;rounded=0;orthogonalLoop=1;jettySize=auto;html=1;fontFamily=GOST type A Regular;fontSource=https%3A%2F%2Fwebfonts.pro%2Flight-fonts%2F123-gost_type_a.html;fontSize=14;startArrow=none;startFill=0;endArrow=classic;endFill=1;fontStyle=2;" edge="1" parent="1" source="AHjrq2r-RXmyC5x76Tg_-14" target="AHjrq2r-RXmyC5x76Tg_-12">
          <mxGeometry relative="1" as="geometry">
            <mxPoint x="1174.92" y="511" as="targetPoint" />
            <mxPoint x="1092" y="511.37" as="sourcePoint" />
            <Array as="points">
              <mxPoint x="1155" y="511" />
              <mxPoint x="1155" y="511" />
            </Array>
          </mxGeometry>
        </mxCell>
        <mxCell id="AHjrq2r-RXmyC5x76Tg_-19" style="edgeStyle=orthogonalEdgeStyle;rounded=0;orthogonalLoop=1;jettySize=auto;html=1;fontFamily=GOST type A Regular;fontSource=https%3A%2F%2Fwebfonts.pro%2Flight-fonts%2F123-gost_type_a.html;fontSize=14;startArrow=none;startFill=0;endArrow=classic;endFill=1;fontStyle=2;exitX=1;exitY=0.276;exitDx=0;exitDy=0;exitPerimeter=0;" edge="1" parent="1" source="AHjrq2r-RXmyC5x76Tg_-12" target="AHjrq2r-RXmyC5x76Tg_-16">
          <mxGeometry relative="1" as="geometry">
            <mxPoint x="1186" y="521" as="targetPoint" />
            <mxPoint x="1102" y="521" as="sourcePoint" />
            <Array as="points">
              <mxPoint x="1348" y="417" />
              <mxPoint x="1348" y="417" />
            </Array>
          </mxGeometry>
        </mxCell>
        <mxCell id="AHjrq2r-RXmyC5x76Tg_-20" style="edgeStyle=orthogonalEdgeStyle;rounded=0;orthogonalLoop=1;jettySize=auto;html=1;fontFamily=GOST type A Regular;fontSource=https%3A%2F%2Fwebfonts.pro%2Flight-fonts%2F123-gost_type_a.html;fontSize=14;startArrow=none;startFill=0;endArrow=classic;endFill=1;fontStyle=2;" edge="1" parent="1" source="AHjrq2r-RXmyC5x76Tg_-16" target="AHjrq2r-RXmyC5x76Tg_-12">
          <mxGeometry relative="1" as="geometry">
            <mxPoint x="1186" y="521" as="targetPoint" />
            <mxPoint x="1102" y="521" as="sourcePoint" />
            <Array as="points">
              <mxPoint x="1337" y="508" />
              <mxPoint x="1337" y="508" />
            </Array>
          </mxGeometry>
        </mxCell>
        <mxCell id="AHjrq2r-RXmyC5x76Tg_-22" value="" style="rounded=0;whiteSpace=wrap;html=1;dashed=1;strokeWidth=1;fontFamily=GOST type A Regular;fontSource=https%3A%2F%2Fwebfonts.pro%2Flight-fonts%2F123-gost_type_a.html;" vertex="1" parent="1">
          <mxGeometry x="902" y="834" width="692" height="144" as="geometry" />
        </mxCell>
        <mxCell id="AHjrq2r-RXmyC5x76Tg_-23" value="Сокет сервер" style="text;html=1;strokeColor=default;fillColor=none;align=center;verticalAlign=middle;whiteSpace=wrap;rounded=0;strokeWidth=1;fontFamily=GOST type A Regular;fontSource=https%3A%2F%2Fwebfonts.pro%2Flight-fonts%2F123-gost_type_a.html;" vertex="1" parent="1">
          <mxGeometry x="902" y="834" width="85" height="44" as="geometry" />
        </mxCell>
        <mxCell id="AHjrq2r-RXmyC5x76Tg_-29" style="edgeStyle=orthogonalEdgeStyle;rounded=0;orthogonalLoop=1;jettySize=auto;html=1;fontFamily=GOST type A Regular;fontSource=https%3A%2F%2Fwebfonts.pro%2Flight-fonts%2F123-gost_type_a.html;startArrow=none;startFill=0;endArrow=classic;endFill=1;" edge="1" parent="1" source="AHjrq2r-RXmyC5x76Tg_-24" target="JAu2rXF-X8iYknNwJSAS-1">
          <mxGeometry relative="1" as="geometry" />
        </mxCell>
        <mxCell id="AHjrq2r-RXmyC5x76Tg_-24" value="&lt;span style=&quot;font-size: 18px;&quot;&gt;&lt;b&gt;WebSocket&lt;/b&gt;&lt;br&gt;&lt;/span&gt;" style="ellipse;whiteSpace=wrap;html=1;fontSize=18;fontFamily=GOST type A Regular;fontSource=https%3A%2F%2Fwebfonts.pro%2Flight-fonts%2F123-gost_type_a.html;fontStyle=2" vertex="1" parent="1">
          <mxGeometry x="1194" y="700" width="130" height="90" as="geometry" />
        </mxCell>
        <mxCell id="AHjrq2r-RXmyC5x76Tg_-25" value="&lt;span style=&quot;font-size: 18px;&quot;&gt;&lt;b&gt;WebSocket&lt;/b&gt;&lt;br&gt;&lt;/span&gt;" style="ellipse;whiteSpace=wrap;html=1;fontSize=18;fontFamily=GOST type A Regular;fontSource=https%3A%2F%2Fwebfonts.pro%2Flight-fonts%2F123-gost_type_a.html;fontStyle=2" vertex="1" parent="1">
          <mxGeometry x="1194" y="861" width="130" height="90" as="geometry" />
        </mxCell>
        <mxCell id="AHjrq2r-RXmyC5x76Tg_-26" style="edgeStyle=orthogonalEdgeStyle;rounded=0;orthogonalLoop=1;jettySize=auto;html=1;entryX=0.5;entryY=0;entryDx=0;entryDy=0;fontFamily=GOST type A Regular;fontSource=https%3A%2F%2Fwebfonts.pro%2Flight-fonts%2F123-gost_type_a.html;startArrow=classic;startFill=1;endArrow=classic;endFill=1;fontStyle=2" edge="1" parent="1" source="AHjrq2r-RXmyC5x76Tg_-24" target="AHjrq2r-RXmyC5x76Tg_-25">
          <mxGeometry relative="1" as="geometry">
            <mxPoint x="304" y="605" as="sourcePoint" />
            <mxPoint x="199.0000000000041" y="605" as="targetPoint" />
          </mxGeometry>
        </mxCell>
      </root>
    </mxGraphModel>
  </diagram>
</mxfile>
